<svg version="1.1" id="Layer_1" xmlns="http://www.w3.org/2000/svg" xmlns:xlink="http://www.w3.org/1999/xlink" x="0px" y="0px"
	 width="100%" viewBox="0 0 258 51" enable-background="new 0 0 258 51" xml:space="preserve">
<path fill="#FFFAFA" opacity="1.000000" stroke="none" 
	d="
M259.000000,39.000000 
	C259.000000,43.325420 259.000000,47.650845 259.000000,52.000000 
	C183.645767,52.000000 108.291542,52.000000 32.548363,51.635113 
	C34.079929,50.478989 36.063766,49.812447 37.910057,48.875015 
	C46.073868,44.729954 50.709507,37.852657 51.724407,28.964035 
	C52.792576,19.608831 49.204811,11.781857 41.680080,6.056306 
	C39.035435,4.044000 35.907345,2.667057 33.000000,1.000000 
	C108.333351,1.000000 183.666702,1.000000 259.000000,1.000000 
	C259.000000,8.421676 259.000000,15.742102 258.737732,23.513521 
	C258.142883,23.871065 257.810364,23.777615 257.396515,23.327520 
	C254.819870,18.272144 250.802521,18.598034 246.546310,19.706938 
	C245.472290,19.986757 244.371536,20.564106 243.324753,20.480797 
	C238.051300,20.061098 232.791611,19.468023 227.338364,18.916723 
	C227.338364,26.136906 227.338364,32.493942 227.338364,39.022663 
	C229.322983,38.930996 230.935898,38.856495 233.050262,38.758831 
	C233.050262,35.549683 233.038971,32.601543 233.053925,29.653536 
	C233.065430,27.384207 232.478363,24.520329 235.996735,24.535627 
	C239.589066,24.551243 239.404282,27.429537 239.402390,29.967627 
	C239.400192,32.885612 239.401855,35.803600 239.401855,38.700859 
	C241.901810,38.700859 243.658844,38.700859 245.864990,38.700859 
	C245.864990,35.152401 245.560532,31.820190 246.002808,28.590227 
	C246.202087,27.134914 247.890594,25.883518 248.903412,24.539597 
	C249.970551,25.908821 251.742035,27.175249 251.959961,28.668419 
	C252.430817,31.894634 252.104813,35.237148 252.104813,38.844082 
	C254.004639,38.844082 255.458984,38.844082 257.258423,38.903042 
	C258.069031,38.974667 258.534515,38.987335 259.000000,39.000000 
M107.735580,31.307634 
	C111.113434,37.011509 116.193390,39.414066 123.812889,37.856037 
	C120.361931,42.953522 117.354111,42.794983 113.655518,40.898567 
	C112.740479,40.429390 110.806480,41.340370 109.721588,42.136017 
	C109.337341,42.417820 109.880699,45.117279 110.350281,45.227848 
	C114.070061,46.103718 117.982208,47.479904 121.624100,47.022224 
	C125.791878,46.498459 128.598236,43.136284 128.807663,38.624599 
	C129.061447,33.157478 129.065308,27.668570 128.869858,22.200079 
	C128.834259,21.204262 127.371216,19.470739 126.486992,19.417866 
	C118.923866,18.965597 110.932579,17.785461 106.961510,26.251301 
	C105.260368,20.861624 101.326096,18.829056 95.966232,18.925117 
	C92.003929,18.996134 88.833420,20.484476 87.200500,24.250591 
	C84.472244,30.542957 86.750771,36.825001 92.322632,38.746990 
	C98.943161,41.030720 104.815369,37.978889 107.735580,31.307634 
M165.072357,27.590321 
	C165.072357,34.007187 165.072357,40.424049 165.072357,46.683350 
	C174.149597,49.001068 169.333694,41.222652 171.693405,38.842373 
	C173.207352,38.939156 174.692154,39.110802 176.177414,39.115074 
	C181.243347,39.129654 185.438171,35.057964 185.834015,29.807447 
	C186.235977,24.475769 182.747955,19.433340 177.699203,19.078106 
	C173.571045,18.787647 169.373734,19.479923 165.071747,19.744848 
	C165.071747,22.329710 165.071747,24.478415 165.072357,27.590321 
M132.057343,31.165037 
	C131.910614,35.413647 134.760635,37.776276 138.120438,38.688839 
	C142.508148,39.880596 147.077087,39.812748 150.313477,35.449169 
	C152.772766,32.133339 153.895767,28.748762 151.812698,24.828987 
	C149.194016,19.901335 144.541245,17.877594 138.778992,19.204706 
	C134.139313,20.273277 131.995468,23.802111 132.057343,31.165037 
M198.766129,38.971214 
	C204.866455,34.845406 204.930893,32.389366 199.084045,26.572268 
	C200.485519,25.056561 201.886978,23.540854 203.314865,21.996580 
	C198.144409,17.895384 191.709579,17.656141 189.137436,21.336027 
	C188.243713,22.614639 187.205093,24.746603 187.691956,25.837593 
	C188.716934,28.134417 190.706711,30.000696 192.277832,32.014565 
	C190.511063,32.902172 188.463943,33.930630 186.240448,35.047703 
	C189.543274,39.752766 193.770950,39.313854 198.766129,38.971214 
M210.908554,19.774981 
	C207.056656,18.677502 204.720169,19.095840 205.887360,24.096558 
	C206.365768,26.146305 205.988998,28.399736 205.971756,30.560274 
	C205.929932,35.805305 208.146088,38.624340 212.717270,39.109856 
	C218.704010,39.745724 222.781631,37.326973 223.406815,32.095718 
	C223.888779,28.062929 223.502914,23.926424 223.502914,19.642002 
	C221.484055,19.642002 219.770691,19.642002 217.699524,19.642002 
	C217.699524,23.288897 217.998581,26.636459 217.559860,29.884363 
	C217.370850,31.283657 215.653915,32.476562 214.631119,33.763237 
	C213.574875,32.490368 211.830475,31.328613 211.603348,29.921871 
	C211.105453,26.838327 211.376389,23.630642 210.908554,19.774981 
M83.154419,38.961796 
	C83.974876,37.408070 84.795326,35.854347 86.121475,33.342979 
	C82.241249,33.342979 79.770042,33.183182 77.327599,33.380096 
	C73.580544,33.682201 71.915199,32.526482 72.164909,28.385107 
	C72.519608,22.502403 72.254982,16.582359 72.254982,10.742403 
	C69.767532,10.742403 68.037346,10.742403 66.431427,10.742403 
	C66.431427,20.324244 66.431427,29.531988 66.431427,38.968586 
	C71.945984,38.968586 77.083183,38.968586 83.154419,38.961796 
M161.419403,36.892639 
	C161.428772,32.761478 161.456284,28.630264 161.443100,24.499176 
	C161.425186,18.878277 161.106567,18.642605 155.291534,19.951069 
	C155.291534,26.108145 155.291534,32.310806 155.291534,39.400135 
	C157.556854,38.781044 159.429962,38.269138 161.419403,36.892639 
M156.092422,15.885365 
	C158.636200,16.745283 160.982635,16.487143 161.358429,13.466156 
	C161.491440,12.396895 159.776932,10.149735 158.749268,10.049725 
	C154.498093,9.636005 154.242767,12.239925 156.092422,15.885365 
z"/>
<path fill="#E60909" opacity="1.000000" stroke="none" 
	d="
M32.531727,1.000000 
	C35.907345,2.667057 39.035435,4.044000 41.680080,6.056306 
	C49.204811,11.781857 52.792576,19.608831 51.724407,28.964035 
	C50.709507,37.852657 46.073868,44.729954 37.910057,48.875015 
	C36.063766,49.812447 34.079929,50.478989 32.079704,51.635113 
	C28.638712,52.000000 25.277426,52.000000 21.223923,51.741154 
	C17.227093,49.737034 13.271442,48.633678 10.769870,46.096600 
	C6.981958,42.254921 4.205953,37.415493 1.000000,33.000000 
	C1.000000,26.978848 1.000000,20.957697 1.370421,14.454641 
	C8.677258,12.341752 12.724398,7.980420 14.000000,1.000000 
	C20.021151,1.000000 26.042303,1.000000 32.531727,1.000000 
M25.641476,39.007454 
	C32.914944,38.646820 37.727676,34.873489 38.896034,28.615471 
	C40.076443,22.292919 36.764977,17.237087 30.221004,14.070928 
	C28.023140,13.007540 26.541826,10.463148 25.081030,8.954992 
	C22.605425,16.671030 16.319990,22.498947 6.607799,25.826485 
	C9.276583,26.050903 11.058910,26.200779 12.911226,26.356541 
	C14.736494,32.702084 17.515280,38.011086 25.641476,39.007454 
z"/>
<path fill="#FEF3F3" opacity="1.000000" stroke="none" 
	d="
M1.000000,33.469376 
	C4.205953,37.415493 6.981958,42.254921 10.769870,46.096600 
	C13.271442,48.633678 17.227093,49.737034 20.765854,51.741154 
	C14.409307,52.000000 7.818615,52.000000 1.000000,52.000000 
	C1.000000,45.981487 1.000000,39.960117 1.000000,33.469376 
z"/>
<path fill="#FFFBFB" opacity="1.000000" stroke="none" 
	d="
M13.523338,1.000000 
	C12.724398,7.980420 8.677258,12.341752 1.370421,13.986369 
	C1.000000,9.743702 1.000000,5.487404 1.000000,1.000000 
	C5.013751,1.000000 9.030214,1.000000 13.523338,1.000000 
z"/>
<path fill="#F06C6C" opacity="1.000000" stroke="none" 
	d="
M259.000000,38.533882 
	C258.534515,38.987335 258.069031,38.974667 257.321564,38.449181 
	C257.185669,33.185623 257.331757,28.434893 257.477844,23.684162 
	C257.810364,23.777615 258.142883,23.871065 258.737732,23.982258 
	C259.000000,28.689257 259.000000,33.378513 259.000000,38.533882 
z"/>
<path fill="#E71818" opacity="1.000000" stroke="none" 
	d="
M107.077370,26.966234 
	C110.932579,17.785461 118.923866,18.965597 126.486992,19.417866 
	C127.371216,19.470739 128.834259,21.204262 128.869858,22.200079 
	C129.065308,27.668570 129.061447,33.157478 128.807663,38.624599 
	C128.598236,43.136284 125.791878,46.498459 121.624100,47.022224 
	C117.982208,47.479904 114.070061,46.103718 110.350281,45.227848 
	C109.880699,45.117279 109.337341,42.417820 109.721588,42.136017 
	C110.806480,41.340370 112.740479,40.429390 113.655518,40.898567 
	C117.354111,42.794983 120.361931,42.953522 123.812889,37.856037 
	C116.193390,39.414066 111.113434,37.011509 107.148155,30.974039 
	C106.732941,29.415707 106.905159,28.190971 107.077370,26.966234 
M115.537941,25.921658 
	C113.327621,28.595867 114.632988,30.913778 116.979790,32.049191 
	C118.423027,32.747448 121.436584,32.468807 122.316704,31.424746 
	C123.198868,30.378271 123.004440,26.905476 122.025116,26.170330 
	C120.613579,25.110737 118.066849,25.563406 115.537941,25.921658 
z"/>
<path fill="#E61313" opacity="1.000000" stroke="none" 
	d="
M257.396545,23.327518 
	C257.331757,28.434893 257.185669,33.185623 256.976440,38.390221 
	C255.458984,38.844082 254.004639,38.844082 252.104813,38.844082 
	C252.104813,35.237148 252.430817,31.894634 251.959961,28.668419 
	C251.742035,27.175249 249.970551,25.908821 248.903412,24.539597 
	C247.890594,25.883518 246.202087,27.134914 246.002808,28.590227 
	C245.560532,31.820190 245.864990,35.152401 245.864990,38.700859 
	C243.658844,38.700859 241.901810,38.700859 239.401855,38.700859 
	C239.401855,35.803600 239.400192,32.885612 239.402390,29.967627 
	C239.404282,27.429537 239.589066,24.551243 235.996735,24.535627 
	C232.478363,24.520329 233.065430,27.384207 233.053925,29.653536 
	C233.038971,32.601543 233.050262,35.549683 233.050262,38.758831 
	C230.935898,38.856495 229.322983,38.930996 227.338364,39.022663 
	C227.338364,32.493942 227.338364,26.136906 227.338364,18.916723 
	C232.791611,19.468023 238.051300,20.061098 243.324753,20.480797 
	C244.371536,20.564106 245.472290,19.986757 246.546310,19.706938 
	C250.802521,18.598034 254.819870,18.272144 257.396545,23.327518 
z"/>
<path fill="#E71515" opacity="1.000000" stroke="none" 
	d="
M165.072052,27.108719 
	C165.071747,24.478415 165.071747,22.329710 165.071747,19.744848 
	C169.373734,19.479923 173.571045,18.787647 177.699203,19.078106 
	C182.747955,19.433340 186.235977,24.475769 185.834015,29.807447 
	C185.438171,35.057964 181.243347,39.129654 176.177414,39.115074 
	C174.692154,39.110802 173.207352,38.939156 171.693405,38.842373 
	C169.333694,41.222652 174.149597,49.001068 165.072357,46.683350 
	C165.072357,40.424049 165.072357,34.007187 165.072052,27.108719 
M173.718460,24.737434 
	C170.632507,26.012112 169.831940,28.443520 171.375183,31.094805 
	C172.109528,32.356426 174.674332,33.865231 175.545990,33.449707 
	C177.155029,32.682671 178.933319,30.699011 179.184052,29.006393 
	C179.606720,26.153090 177.653244,24.472986 173.718460,24.737434 
z"/>
<path fill="#E61212" opacity="1.000000" stroke="none" 
	d="
M132.042923,30.740646 
	C131.995468,23.802111 134.139313,20.273277 138.778992,19.204706 
	C144.541245,17.877594 149.194016,19.901335 151.812698,24.828987 
	C153.895767,28.748762 152.772766,32.133339 150.313477,35.449169 
	C147.077087,39.812748 142.508148,39.880596 138.120438,38.688839 
	C134.760635,37.776276 131.910614,35.413647 132.042923,30.740646 
M145.273209,25.921516 
	C142.939682,26.025064 140.606171,26.128611 138.272659,26.232155 
	C138.527649,28.312033 138.099823,31.002247 139.246490,32.285099 
	C140.222168,33.376648 144.163239,33.674629 144.751251,32.856579 
	C145.864304,31.308100 145.513168,28.707167 145.273209,25.921516 
z"/>
<path fill="#E71616" opacity="1.000000" stroke="none" 
	d="
M107.019440,26.608768 
	C106.905159,28.190971 106.732941,29.415707 106.839981,30.848770 
	C104.815369,37.978889 98.943161,41.030720 92.322632,38.746990 
	C86.750771,36.825001 84.472244,30.542957 87.200500,24.250591 
	C88.833420,20.484476 92.003929,18.996134 95.966232,18.925117 
	C101.326096,18.829056 105.260368,20.861624 107.019440,26.608768 
M97.322853,33.693481 
	C98.563812,31.869019 100.501686,30.134052 100.752312,28.182415 
	C100.877998,27.203665 98.015854,25.077347 96.344986,24.888950 
	C95.146538,24.753820 92.846382,26.773661 92.512871,28.181543 
	C91.835350,31.041618 93.255989,33.307198 97.322853,33.693481 
z"/>
<path fill="#E71B1B" opacity="1.000000" stroke="none" 
	d="
M198.353394,39.016861 
	C193.770950,39.313854 189.543274,39.752766 186.240448,35.047703 
	C188.463943,33.930630 190.511063,32.902172 192.277832,32.014565 
	C190.706711,30.000696 188.716934,28.134417 187.691956,25.837593 
	C187.205093,24.746603 188.243713,22.614639 189.137436,21.336027 
	C191.709579,17.656141 198.144409,17.895384 203.314865,21.996580 
	C201.886978,23.540854 200.485519,25.056561 199.087616,26.576197 
	C204.930893,32.389366 204.866455,34.845406 198.353394,39.016861 
z"/>
<path fill="#E61111" opacity="1.000000" stroke="none" 
	d="
M211.120972,20.124317 
	C211.376389,23.630642 211.105453,26.838327 211.603348,29.921871 
	C211.830475,31.328613 213.574875,32.490368 214.631119,33.763233 
	C215.653915,32.476562 217.370850,31.283657 217.559860,29.884363 
	C217.998581,26.636459 217.699524,23.288897 217.699524,19.642002 
	C219.770691,19.642002 221.484055,19.642002 223.502914,19.642002 
	C223.502914,23.926424 223.888779,28.062929 223.406815,32.095718 
	C222.781631,37.326973 218.704010,39.745724 212.717270,39.109856 
	C208.146088,38.624340 205.929932,35.805305 205.971756,30.560274 
	C205.988998,28.399736 206.365768,26.146305 205.887360,24.096558 
	C204.720169,19.095840 207.056656,18.677502 211.120972,20.124317 
z"/>
<path fill="#E61111" opacity="1.000000" stroke="none" 
	d="
M82.687401,38.965191 
	C77.083183,38.968586 71.945984,38.968586 66.431427,38.968586 
	C66.431427,29.531988 66.431427,20.324244 66.431427,10.742403 
	C68.037346,10.742403 69.767532,10.742403 72.254982,10.742403 
	C72.254982,16.582359 72.519608,22.502403 72.164909,28.385107 
	C71.915199,32.526482 73.580544,33.682201 77.327599,33.380096 
	C79.770042,33.183182 82.241249,33.342979 86.121475,33.342979 
	C84.795326,35.854347 83.974876,37.408070 82.687401,38.965191 
z"/>
<path fill="#E71818" opacity="1.000000" stroke="none" 
	d="
M161.361237,37.324936 
	C159.429962,38.269138 157.556854,38.781044 155.291534,39.400135 
	C155.291534,32.310806 155.291534,26.108145 155.291534,19.951069 
	C161.106567,18.642605 161.425186,18.878277 161.443100,24.499176 
	C161.456284,28.630264 161.428772,32.761478 161.361237,37.324936 
z"/>
<path fill="#E82020" opacity="1.000000" stroke="none" 
	d="
M155.774628,15.679825 
	C154.242767,12.239925 154.498093,9.636005 158.749268,10.049725 
	C159.776932,10.149735 161.491440,12.396895 161.358429,13.466156 
	C160.982635,16.487143 158.636200,16.745283 155.774628,15.679825 
z"/>
<path fill="#FEF7F7" opacity="1.000000" stroke="none" 
	d="
M25.230606,38.970695 
	C17.515280,38.011086 14.736494,32.702084 12.911226,26.356541 
	C11.058910,26.200779 9.276583,26.050903 6.607799,25.826485 
	C16.319990,22.498947 22.605425,16.671030 25.081030,8.954992 
	C26.541826,10.463148 28.023140,13.007540 30.221004,14.070928 
	C36.764977,17.237087 40.076443,22.292919 38.896034,28.615471 
	C37.727676,34.873489 32.914944,38.646820 25.230606,38.970695 
z"/>
<path fill="#FCE3E3" opacity="1.000000" stroke="none" 
	d="
M115.771248,25.646189 
	C118.066849,25.563406 120.613579,25.110737 122.025116,26.170330 
	C123.004440,26.905476 123.198868,30.378271 122.316704,31.424746 
	C121.436584,32.468807 118.423027,32.747448 116.979790,32.049191 
	C114.632988,30.913778 113.327621,28.595867 115.771248,25.646189 
z"/>
<path fill="#FDEBEB" opacity="1.000000" stroke="none" 
	d="
M174.144196,24.671171 
	C177.653244,24.472986 179.606720,26.153090 179.184052,29.006393 
	C178.933319,30.699011 177.155029,32.682671 175.545990,33.449707 
	C174.674332,33.865231 172.109528,32.356426 171.375183,31.094805 
	C169.831940,28.443520 170.632507,26.012112 174.144196,24.671171 
z"/>
<path fill="#FDECEC" opacity="1.000000" stroke="none" 
	d="
M145.521790,26.232517 
	C145.513168,28.707167 145.864304,31.308100 144.751251,32.856579 
	C144.163239,33.674629 140.222168,33.376648 139.246490,32.285099 
	C138.099823,31.002247 138.527649,28.312033 138.272644,26.232155 
	C140.606171,26.128611 142.939682,26.025064 145.521790,26.232517 
z"/>
<path fill="#FDECEC" opacity="1.000000" stroke="none" 
	d="
M96.945084,33.713940 
	C93.255989,33.307198 91.835350,31.041618 92.512871,28.181543 
	C92.846382,26.773661 95.146538,24.753820 96.344986,24.888950 
	C98.015854,25.077347 100.877998,27.203665 100.752312,28.182415 
	C100.501686,30.134052 98.563812,31.869019 96.945084,33.713940 
z"/>
</svg>